<?xml version="1.0" standalone="no"?>
<!DOCTYPE svg PUBLIC "-//W3C//DTD SVG 20010904//EN"
 "http://www.w3.org/TR/2001/REC-SVG-20010904/DTD/svg10.dtd">
<svg version="1.0" xmlns="http://www.w3.org/2000/svg"
 width="700.000000pt" height="700.000000pt" viewBox="0 0 700.000000 700.000000"
 preserveAspectRatio="xMidYMid meet">
<metadata>
Created by potrace 1.14, written by Peter Selinger 2001-2017
</metadata>
<g transform="translate(0.000000,700.000000) scale(0.100000,-0.100000)"
fill="#000000" stroke="none">
<path d="M1568 6095 c-2 -2 -21 -5 -43 -7 -76 -9 -165 -40 -166 -57 -5 -95 0
-3403 5 -3408 3 -4 34 -8 69 -9 386 -12 793 -158 1082 -388 134 -107 291 -294
381 -452 44 -79 120 -257 149 -352 l24 -77 -2 1805 -2 1805 -54 95 c-237 419
-573 762 -907 928 -92 46 -206 87 -284 103 -50 10 -245 21 -252 14z"/>
<path d="M5398 6045 c-2 -2 -39 -6 -83 -9 -114 -9 -272 -37 -430 -77 -505
-127 -1070 -407 -1500 -743 -49 -38 -92 -71 -95 -73 -2 -2 -4 -820 -5 -1818 0
-1696 1 -1813 17 -1802 9 7 61 46 115 88 329 254 727 481 1143 649 289 118
696 225 964 256 33 3 67 8 75 9 9 2 23 4 31 4 13 1 15 202 14 1749 0 962 -4
1753 -7 1759 -6 9 -230 16 -239 8z"/>
<path d="M502 3683 l3 -1926 1282 -427 1282 -428 428 0 428 0 80 26 c44 14 85
27 90 28 6 2 117 39 248 83 132 44 253 85 270 90 18 5 241 80 497 166 256 86
472 158 480 160 8 2 215 71 460 153 l445 149 3 1927 c1 1059 -1 1926 -5 1926
-4 0 -101 -37 -215 -82 l-208 -83 0 -1716 0 -1716 -42 -12 c-49 -14 -458 -145
-713 -228 -93 -30 -174 -56 -180 -57 -12 -3 -310 -98 -410 -131 -38 -13 -158
-51 -265 -85 -235 -75 -361 -115 -459 -146 -70 -23 -76 -23 -120 -8 -207 70
-471 77 -697 18 -54 -13 -101 -27 -105 -30 -4 -2 -40 20 -80 49 -127 96 -348
228 -529 318 -339 168 -712 301 -1133 403 -100 25 -198 47 -217 50 -19 3 -46
8 -60 11 -14 3 -41 8 -60 11 -19 3 -43 8 -52 11 -17 4 -18 90 -18 1631 l0
1627 -208 83 c-114 45 -211 82 -215 82 -4 0 -6 -867 -5 -1927z"/>
</g>
</svg>
